<svg width="13" height="12" fill="none" xmlns="http://www.w3.org/2000/svg"><path d="M6.625 9.978l-3.59 1.981a.32.32 0 0 1-.468-.34l.8-3.975L.355 4.896a.318.318 0 0 1 .179-.55l4.079-.478L6.336.184a.32.32 0 0 1 .578 0l1.724 3.684 4.08.477c.271.032.38.367.178.551L9.882 7.644l.801 3.974a.319.319 0 0 1-.468.341l-3.59-1.981z" fill="url(#paint0_linear)"/><defs><linearGradient id="paint0_linear" x1=".25" y1="12" x2="13" y2="12" gradientUnits="userSpaceOnUse"><stop stop-color="#F5A623"/><stop offset="1" stop-color="#F5C723"/></linearGradient></defs></svg>